# xmcd CD database file
#
# Track frame offsets:
#	150
#	19095
#	34955
#	56130
#	78457
#	97285
#	114265
#	134350
#	146290
#	171300
#
# Disc length: 2598 seconds
#
# Revision: 2
# Processed by: cddbd v1.4PL0 Copyright (c) Steve Scherf et al.
# Submitted via: CDex 1.50
#
DISCID=8a0a240a
DTITLE=The Smokin' Joe Kubek Band - Got My Mind Back
DYEAR=1996
DGENRE=Blues
TTITLE0=Got My Mind Back
TTITLE1=Got You By The Tail
TTITLE2=Can't See For Lookin'
TTITLE3=All The Love There Is
TTITLE4=She's It
TTITLE5=Let Me Take Your Picture
TTITLE6=I'm Here For You
TTITLE7=Don't Touch Her
TTITLE8=Cryin' By Myself
TTITLE9=Double Or Nothing
EXTD=YEAR: 1996
EXTT0=
EXTT1=
EXTT2=
EXTT3=
EXTT4=
EXTT5=
EXTT6=
EXTT7=
EXTT8=
EXTT9=
PLAYORDER=
